HIERARCHY
ROOT root
{
	OFFSET 0.000000 0.000000 0.000000
	CHANNELS 6 Xposition Yposition Zposition Zrotation Yrotation Xrotation
	JOINT lhip
	{
		OFFSET 0.058581 -0.082280 -0.017664
		CHANNELS 3 Zrotation Yrotation Xrotation
		JOINT lknee
		{
			OFFSET 0.043451 -0.386469 0.008037
			CHANNELS 3 Zrotation Yrotation Xrotation
			JOINT lankle
			{
				OFFSET -0.014790 -0.426874 -0.037428
				CHANNELS 3 Zrotation Yrotation Xrotation
				JOINT ltoe
				{
					OFFSET 0.041054 -0.060286 0.122042
					CHANNELS 3 Zrotation Yrotation Xrotation
					End Site
					{
						OFFSET 0.000000 0.000000 0.000000
					}
				}
			}
		}
	}
	JOINT rhip
	{
		OFFSET -0.060310 -0.090513 -0.013543
		CHANNELS 3 Zrotation Yrotation Xrotation
		JOINT rknee
		{
			OFFSET -0.043257 -0.383688 -0.004843
			CHANNELS 3 Zrotation Yrotation Xrotation
			JOINT rankle
			{
				OFFSET 0.019056 -0.420046 -0.034562
				CHANNELS 3 Zrotation Yrotation Xrotation
				JOINT rtoe
				{
					OFFSET -0.034840 -0.062106 0.130323
					CHANNELS 3 Zrotation Yrotation Xrotation
					End Site
					{
						OFFSET 0.000000 0.000000 0.000000
					}
				}
			}
		}
	}
	JOINT lowerback
	{
		OFFSET 0.004439 0.124404 -0.038385
		CHANNELS 3 Zrotation Yrotation Xrotation
		JOINT upperback
		{
			OFFSET 0.004488 0.137956 0.026820
			CHANNELS 3 Zrotation Yrotation Xrotation
			JOINT chest
			{
				OFFSET -0.002265 0.056032 0.002855
				CHANNELS 3 Zrotation Yrotation Xrotation
				JOINT lowerneck
				{
					OFFSET -0.013390 0.211636 -0.033468
					CHANNELS 3 Zrotation Yrotation Xrotation
					JOINT upperneck
					{
						OFFSET 0.010113 0.088937 0.050410
						CHANNELS 3 Zrotation Yrotation Xrotation
						End Site
						{
							OFFSET 0.000000 0.000000 0.000000
						}
					}
				}
				JOINT lclavicle
				{
					OFFSET 0.071702 0.114000 -0.018898
					CHANNELS 3 Zrotation Yrotation Xrotation
					JOINT lshoulder
					{
						OFFSET 0.122921 0.045205 -0.019046
						CHANNELS 3 Zrotation Yrotation Xrotation
						JOINT lelbow
						{
							OFFSET 0.255332 -0.015649 -0.022946
							CHANNELS 3 Zrotation Yrotation Xrotation
							JOINT lwrist
							{
								OFFSET 0.265709 0.012698 -0.007375
								CHANNELS 3 Zrotation Yrotation Xrotation
								End Site
								{
									OFFSET 0.000000 0.000000 0.000000
								}
							}
						}
					}
				}
				JOINT rclavicle
				{
					OFFSET -0.082954 0.112472 -0.023707
					CHANNELS 3 Zrotation Yrotation Xrotation
					JOINT rshoulder
					{
						OFFSET -0.113228 0.046853 -0.008472
						CHANNELS 3 Zrotation Yrotation Xrotation
						JOINT relbow
						{
							OFFSET -0.260127 -0.014369 -0.031269
							CHANNELS 3 Zrotation Yrotation Xrotation
							JOINT rwrist
							{
								OFFSET -0.269108 0.006794 -0.006027
								CHANNELS 3 Zrotation Yrotation Xrotation
								End Site
								{
									OFFSET 0.000000 0.000000 0.000000
								}
							}
						}
					}
				}
			}
		}
	}
}
MOTION
Frames: 9
Frame Time: 0.033333
1.160325 0.187153 0.994514 -91.350862 0.221445 81.581690 7.701988 -1.792246 1.831915 -6.387234 -11.000891 14.380962 2.279753 10.099310 -14.529153 0.000000 -0.000000 0.000000 -0.383718 -3.722237 10.940538 5.846559 4.232441 4.093952 2.953744 -0.677417 -10.197321 0.000000 -0.000000 0.000000 -4.456222 4.060083 7.016551 2.179431 -4.693656 10.811279 0.759109 -1.739116 4.228132 2.853790 4.478942 12.624152 6.168265 -3.292502 -0.569279 -17.813378 3.067509 1.630447 -45.649301 -9.515885 5.910934 17.312361 -47.376386 -4.461585 5.342547 1.829841 -15.306474 23.284639 -2.447063 1.408763 62.815291 -0.032661 9.180757 -14.439296 23.483498 -5.799414 -0.226118 -1.729849 -7.500244 
1.165796 0.188014 0.993828 -89.099259 0.771914 83.658138 6.618286 -1.345773 2.557932 -5.756004 -11.653933 12.360877 3.333130 8.782430 -14.939757 0.000000 -0.000000 0.000000 1.011943 -2.953287 8.296997 5.449752 2.105598 3.830394 2.610102 -1.652091 -9.781136 0.000000 -0.000000 0.000000 -4.811781 2.912893 6.328365 2.881450 -5.051295 9.888692 0.940648 -2.245511 3.955998 3.520400 4.208912 13.085914 5.796418 -3.564172 0.828153 -18.219734 3.850955 2.442012 -48.427170 -9.953044 5.711311 21.801851 -44.719972 -3.897671 2.045782 1.043716 -13.105550 23.358450 -3.294518 1.407720 63.942887 0.138779 8.934249 -17.211073 24.768496 -4.480408 3.389399 -1.685163 -8.817811 
1.166426 0.187552 0.992511 -87.916731 1.797405 84.508742 5.173679 -1.139547 3.406753 -4.999592 -12.730455 9.892262 3.613006 8.053430 -14.940257 0.000000 -0.000000 0.000000 2.571453 -2.417086 7.271173 5.110533 1.010501 3.613155 2.238064 -2.316490 -9.602479 0.000000 -0.000000 0.000000 -3.505375 1.990104 5.896001 2.926772 -4.938955 9.291521 0.487674 -2.567397 4.595908 4.012617 3.927939 12.937438 5.409402 -3.699996 2.503304 -18.724026 4.755595 2.673259 -50.647926 -10.255227 5.300815 25.163106 -42.199981 -2.628109 -0.737915 0.433860 -10.856795 22.981055 -4.504753 0.879610 65.090378 0.566023 8.920076 -18.600042 26.088262 -2.416794 6.252134 -1.577738 -10.224396 
1.167270 0.187487 0.991737 -86.893285 2.264847 85.039925 3.822594 -0.730615 4.529820 -4.369194 -14.149349 6.822102 4.054001 7.110654 -15.073004 0.000000 -0.000000 0.000000 3.427602 -2.163383 6.473670 4.763870 0.346713 3.604529 1.864501 -2.747162 -9.549623 0.000000 -0.000000 0.000000 -2.801522 1.385272 6.127857 2.795811 -4.599207 8.494822 0.146709 -2.753860 5.119968 5.099079 3.449813 12.758252 4.963934 -4.048530 4.664852 -20.013445 6.219150 2.303701 -52.046325 -10.587771 4.595080 28.098103 -39.147369 -0.810064 -3.548777 -0.282020 -7.212742 22.704645 -4.924702 0.014493 65.772719 1.141729 9.134102 -18.742461 25.634222 -0.914965 7.554136 -1.331289 -11.051124 
1.167290 0.186977 0.991766 -86.487961 2.404241 85.175466 3.172398 -0.485636 5.209344 -4.007344 -14.988656 4.931640 4.166293 6.531825 -15.046894 0.000000 -0.000000 0.000000 3.722737 -2.056632 6.267060 4.589165 0.171512 3.562373 1.739485 -3.018848 -9.465511 0.000000 -0.000000 0.000000 -2.521031 1.126261 6.221502 2.669697 -4.418757 8.365195 -0.008336 -2.795683 5.276501 5.595091 3.179141 12.721412 4.758990 -4.255968 5.961750 -21.011090 6.894312 2.224595 -52.561944 -10.584986 4.099025 29.992750 -37.636471 -0.011706 -5.306304 -0.529772 -5.009487 22.789661 -4.939411 -0.077230 65.773839 1.152042 9.193750 -19.170469 26.231839 -0.398407 8.871151 -0.841335 -11.810369 
1.167649 0.185767 0.991344 -86.133214 2.971904 85.928452 1.755965 -0.258919 7.018368 -3.153798 -16.897575 1.412566 4.132720 5.803499 -14.602280 0.000000 -0.000000 0.000000 4.507126 -1.394606 5.228090 4.464376 -0.223449 3.745049 1.520311 -3.551846 -9.455917 0.000000 -0.000000 0.000000 -1.469640 0.462993 5.601365 2.419053 -3.848938 8.039862 -0.481556 -2.886579 5.582257 6.192222 2.793900 12.640404 4.347173 -4.411489 7.701895 -22.393154 7.797913 2.007151 -53.108698 -10.687889 3.549475 32.396179 -35.605766 1.149224 -7.915812 -0.701351 -1.971218 22.789941 -5.130486 -0.260257 65.654046 1.267848 9.380433 -19.412628 26.773833 0.859099 11.141254 -0.347846 -12.922565 
1.167291 0.185166 0.991930 -86.040072 3.034953 85.928417 1.762295 -0.326387 7.005523 -3.079811 -16.801592 1.474440 4.086341 5.736028 -14.367458 0.000000 -0.000000 0.000000 4.715098 -0.874165 5.190047 4.355817 -0.403011 3.810837 1.266797 -4.033152 -9.390791 0.000000 -0.000000 0.000000 -1.211616 0.351077 5.655338 2.316856 -3.449300 7.994601 -0.768118 -3.000389 5.566833 6.724865 2.185878 12.649486 4.158404 -4.590850 9.294897 -23.695996 8.707897 1.933813 -53.731021 -10.475145 2.892758 34.280743 -33.836379 3.320926 -10.699531 -0.831958 0.635071 22.933247 -5.378467 -0.160006 65.448188 1.410383 9.424144 -19.566584 27.292313 2.079693 12.754643 0.222545 -14.124081 
1.167154 0.185463 0.992263 -85.823675 2.867035 85.883111 1.501888 -0.717281 7.064199 -3.106556 -16.936696 1.496737 4.866264 6.430694 -14.433790 0.000000 -0.000000 0.000000 4.499831 -1.382382 5.390428 4.335651 0.388385 3.599979 1.553056 -4.642009 -9.374267 0.000000 -0.000000 0.000000 -1.829880 0.970809 5.604174 2.416870 -4.022827 7.602667 0.149080 -2.727533 6.333555 5.484157 0.635936 13.082051 4.688930 -3.607728 8.690570 -23.651205 7.242253 2.658856 -62.640734 -6.819662 9.120760 10.993671 -25.157592 3.875667 1.474311 0.502545 -12.266493 22.430304 -5.674270 -0.504810 64.670827 2.074250 11.309693 -17.897632 27.095849 -3.474125 2.799733 -0.895948 -8.325637 
1.167011 0.185798 0.992037 -85.858430 2.831323 85.889379 1.465009 -0.813375 7.024504 -3.100192 -16.804360 1.595455 5.022690 6.354940 -14.544021 0.000000 -0.000000 0.000000 4.413472 -1.524942 5.478650 4.345396 0.314621 3.552091 1.686057 -4.482152 -9.314437 0.000000 -0.000000 0.000000 -1.870707 1.038190 5.611924 2.425041 -4.023481 7.575663 0.126868 -2.712829 6.285642 5.524603 0.463693 13.058756 4.827068 -3.968342 8.797343 -23.588456 7.278490 2.667513 -62.852903 -7.025143 9.476887 11.308730 -26.577248 3.934015 1.372772 0.704743 -12.573480 22.379408 -5.769048 -0.454435 64.827171 2.013983 11.326081 -18.152775 27.662885 -3.566464 3.040316 -1.194065 -8.569313 
